<svg width="245" height="117" viewBox="0 0 245 117" fill="none" xmlns="http://www.w3.org/2000/svg">
<path d="M216.887 92.7421C211.111 92.7421 206.116 91.5149 201.901 89.0606C197.712 86.5816 194.476 83.1357 192.196 78.7229C189.915 74.2854 188.775 69.1413 188.775 63.2907C188.775 57.3906 189.915 52.2341 192.196 47.8214C194.476 43.3838 197.712 39.9379 201.901 37.4836C206.116 35.0046 211.111 33.765 216.887 33.765C222.663 33.765 227.646 35.0046 231.836 37.4836C236.05 39.9379 239.298 43.3838 241.579 47.8214C243.86 52.2341 245 57.3906 245 63.2907C245 69.1413 243.86 74.2854 241.579 78.7229C239.298 83.1357 236.05 86.5816 231.836 89.0606C227.646 91.5149 222.663 92.7421 216.887 92.7421ZM216.962 80.4707C219.589 80.4707 221.783 79.7269 223.544 78.2395C225.304 76.7273 226.63 74.6697 227.522 72.0666C228.44 69.4636 228.898 66.5011 228.898 63.1792C228.898 59.8572 228.44 56.8947 227.522 54.2917C226.63 51.6887 225.304 49.6311 223.544 48.1188C221.783 46.6066 219.589 45.8505 216.962 45.8505C214.309 45.8505 212.078 46.6066 210.268 48.1188C208.483 49.6311 207.132 51.6887 206.215 54.2917C205.322 56.8947 204.876 59.8572 204.876 63.1792C204.876 66.5011 205.322 69.4636 206.215 72.0666C207.132 74.6697 208.483 76.7273 210.268 78.2395C212.078 79.7269 214.309 80.4707 216.962 80.4707Z" fill="#B44075"/>
<path d="M148.589 110.531C143.506 109.827 139.244 108.523 135.804 106.62C132.384 104.745 129.771 102.468 127.965 99.7907C126.158 97.1128 125.142 94.244 124.915 91.1843L139.698 91.242C139.983 92.4328 140.537 93.5856 141.359 94.7005C142.18 95.8154 143.336 96.7763 144.826 97.5834C146.337 98.4183 148.235 98.9939 150.518 99.3102C153.932 99.7829 156.859 99.3374 159.3 97.9737C161.763 96.6379 163.263 94.03 163.8 90.1501L165.233 79.7997L164.57 79.7078C163.665 81.1842 162.428 82.527 160.859 83.7363C159.29 84.9456 157.364 85.8426 155.081 86.4273C152.797 87.0121 150.158 87.097 147.162 86.6821C142.913 86.0937 139.182 84.5759 135.967 82.1284C132.78 79.6599 130.437 76.2446 128.939 71.8825C127.469 67.4994 127.167 62.1769 128.035 55.915C128.922 49.5058 130.707 44.2971 133.39 40.2888C136.072 36.2805 139.293 33.448 143.051 31.7911C146.834 30.1376 150.8 29.5983 154.95 30.173C158.118 30.6117 160.695 31.5192 162.682 32.8956C164.672 34.2474 166.207 35.8115 167.288 37.5879C168.396 39.3431 169.201 41.0313 169.702 42.6524L170.292 42.734L171.608 33.2308L187.189 35.3886L179.277 92.5188C178.61 97.3318 176.874 101.196 174.067 104.111C171.261 107.026 167.658 109.004 163.259 110.047C158.881 111.118 153.991 111.279 148.589 110.531ZM153.767 75.5837C156.296 75.934 158.519 75.6037 160.436 74.5928C162.381 73.5607 163.983 71.9306 165.243 69.7025C166.53 67.4531 167.404 64.6709 167.863 61.3558C168.322 58.0407 168.253 55.103 167.657 52.5427C167.064 49.9579 165.977 47.8677 164.396 46.2722C162.815 44.6768 160.76 43.7039 158.23 43.3536C155.652 42.9965 153.382 43.3954 151.42 44.5503C149.461 45.6806 147.858 47.4106 146.609 49.7404C145.36 52.0702 144.513 54.8435 144.068 58.0604C143.616 61.3264 143.679 64.2133 144.257 66.7211C144.864 69.2077 145.949 71.2225 147.512 72.7654C149.103 74.2872 151.188 75.2267 153.767 75.5837Z" fill="#B44075"/>
<path d="M105 91.6263V34.5086H120.841V91.6263H105Z" fill="#B44075"/>
<path d="M62.1626 91.6263V34.5086H77.5204V44.4744H78.1154C79.1566 40.9294 80.9043 38.252 83.3586 36.4423C85.8129 34.6077 88.639 33.6905 91.837 33.6905C92.6303 33.6905 93.4856 33.7401 94.4029 33.8392C95.3201 33.9384 96.1258 34.0747 96.8199 34.2483V48.3046C96.0762 48.0815 95.0474 47.8831 93.7335 47.7096C92.4196 47.5361 91.2172 47.4493 90.1265 47.4493C87.7961 47.4493 85.7137 47.9575 83.8792 48.9739C82.0695 49.9656 80.6316 51.3538 79.5656 53.1388C78.5244 54.9237 78.0038 56.9813 78.0038 59.3116V91.6263H62.1626Z" fill="#B44075"/>
<path d="M28.1126 92.7421C22.3364 92.7421 17.3411 91.5149 13.1267 89.0606C8.93704 86.5816 5.70186 83.1357 3.42111 78.7229C1.14037 74.2854 0 69.1413 0 63.2907C0 57.3906 1.14037 52.2341 3.42111 47.8214C5.70186 43.3838 8.93704 39.9379 13.1267 37.4836C17.3411 35.0046 22.3364 33.765 28.1126 33.765C33.8889 33.765 38.8718 35.0046 43.0614 37.4836C47.2758 39.9379 50.5234 43.3838 52.8041 47.8214C55.0849 52.2341 56.2253 57.3906 56.2253 63.2907C56.2253 69.1413 55.0849 74.2854 52.8041 78.7229C50.5234 83.1357 47.2758 86.5816 43.0614 89.0606C38.8718 91.5149 33.8889 92.7421 28.1126 92.7421ZM28.187 80.4707C30.8148 80.4707 33.0088 79.7269 34.7689 78.2395C36.5291 76.7273 37.8554 74.6697 38.7478 72.0666C39.6651 69.4636 40.1237 66.5011 40.1237 63.1792C40.1237 59.8572 39.6651 56.8947 38.7478 54.2917C37.8554 51.6887 36.5291 49.6311 34.7689 48.1188C33.0088 46.6066 30.8148 45.8505 28.187 45.8505C25.5344 45.8505 23.3032 46.6066 21.4935 48.1188C19.7086 49.6311 18.3575 51.6887 17.4402 54.2917C16.5478 56.8947 16.1015 59.8572 16.1015 63.1792C16.1015 66.5011 16.5478 69.4636 17.4402 72.0666C18.3575 74.6697 19.7086 76.7273 21.4935 78.2395C23.3032 79.7269 25.5344 80.4707 28.187 80.4707Z" fill="#B44075"/>
<path d="M122.61 13.9835C122.218 13.4719 121.74 13.0285 121.297 12.5852C120.154 11.562 118.858 10.8287 117.767 9.75435C115.226 7.26461 114.663 3.15482 116.283 0C114.663 0.392221 113.248 1.27898 112.037 2.25101C107.62 5.79804 105.881 12.0565 107.961 17.4282C108.03 17.5988 108.098 17.7693 108.098 17.991C108.098 18.3662 107.842 18.7072 107.501 18.8436C107.109 19.0142 106.7 18.9119 106.376 18.639C106.279 18.5579 106.198 18.4596 106.137 18.3491C104.21 15.9105 103.903 12.4146 105.199 9.61793C102.351 11.9371 100.799 15.8594 101.021 19.5599C101.123 20.4125 101.226 21.2652 101.515 22.1178C101.754 23.141 102.215 24.1642 102.726 25.068C104.568 28.0182 107.757 30.1328 111.185 30.5591C114.834 31.0195 118.739 30.3545 121.536 27.8306C124.656 24.9998 125.748 20.4637 124.145 16.5756L123.923 16.1322C123.565 15.3478 122.61 13.9835 122.61 13.9835ZM117.221 24.7269C116.744 25.1362 115.959 25.5796 115.345 25.7501C113.436 26.4323 111.526 25.4773 110.4 24.3518C112.429 23.8743 113.64 22.3736 113.998 20.8559C114.288 19.4917 113.742 18.3662 113.521 17.0531C113.316 15.7911 113.35 14.7168 113.811 13.5401C114.135 14.1882 114.476 14.8362 114.885 15.3478C116.198 17.0531 118.262 17.8034 118.705 20.1226C118.773 20.3614 118.807 20.6001 118.807 20.8559C118.858 22.2543 118.245 23.789 117.221 24.7269Z" fill="#198755"/>
<path d="M114.833 116.029C114.027 116.029 113.335 115.919 112.757 115.7C112.178 115.485 111.713 115.196 111.362 114.833C111.011 114.469 110.767 114.066 110.631 113.624L112.651 113.134C112.742 113.32 112.874 113.504 113.048 113.686C113.221 113.872 113.455 114.025 113.748 114.145C114.046 114.269 114.42 114.331 114.87 114.331C115.506 114.331 116.033 114.176 116.45 113.866C116.868 113.56 117.076 113.056 117.076 112.353V110.55H116.965C116.849 110.781 116.68 111.019 116.457 111.263C116.238 111.506 115.946 111.711 115.583 111.876C115.223 112.042 114.771 112.124 114.225 112.124C113.494 112.124 112.831 111.953 112.236 111.61C111.645 111.263 111.174 110.746 110.823 110.06C110.476 109.37 110.302 108.507 110.302 107.47C110.302 106.424 110.476 105.542 110.823 104.823C111.174 104.1 111.647 103.553 112.242 103.181C112.837 102.805 113.5 102.617 114.232 102.617C114.789 102.617 115.248 102.712 115.608 102.902C115.971 103.088 116.26 103.313 116.475 103.578C116.69 103.838 116.853 104.084 116.965 104.315H117.089V102.741H119.301V112.415C119.301 113.229 119.107 113.903 118.719 114.436C118.33 114.969 117.799 115.368 117.126 115.632C116.452 115.896 115.688 116.029 114.833 116.029ZM114.851 110.364C115.327 110.364 115.732 110.248 116.066 110.017C116.401 109.786 116.655 109.453 116.828 109.019C117.002 108.585 117.089 108.065 117.089 107.457C117.089 106.858 117.002 106.333 116.828 105.883C116.659 105.433 116.407 105.084 116.072 104.836C115.742 104.584 115.335 104.458 114.851 104.458C114.351 104.458 113.934 104.588 113.599 104.848C113.265 105.108 113.013 105.466 112.843 105.92C112.674 106.371 112.589 106.883 112.589 107.457C112.589 108.04 112.674 108.55 112.843 108.988C113.017 109.422 113.271 109.761 113.606 110.005C113.945 110.244 114.36 110.364 114.851 110.364Z" fill="#198755"/>
<path d="M102.301 106.683V112.261H100.058V102.741H102.202V104.358H102.313C102.532 103.825 102.882 103.402 103.361 103.088C103.844 102.774 104.441 102.617 105.152 102.617C105.809 102.617 106.381 102.757 106.869 103.038C107.36 103.319 107.741 103.726 108.009 104.259C108.282 104.792 108.416 105.439 108.412 106.199V112.261H106.168V106.546C106.168 105.91 106.003 105.412 105.673 105.053C105.346 104.693 104.894 104.513 104.315 104.513C103.923 104.513 103.574 104.6 103.268 104.774C102.966 104.943 102.729 105.189 102.555 105.511C102.386 105.834 102.301 106.224 102.301 106.683Z" fill="#198755"/>
<path d="M95.507 112.26V102.741H97.7506V112.26H95.507ZM96.635 101.39C96.2797 101.39 95.9739 101.272 95.7177 101.036C95.4616 100.797 95.3335 100.51 95.3335 100.175C95.3335 99.8362 95.4616 99.549 95.7177 99.3135C95.9739 99.0739 96.2797 98.954 96.635 98.954C96.9945 98.954 97.3002 99.0739 97.5523 99.3135C97.8084 99.549 97.9365 99.8362 97.9365 100.175C97.9365 100.51 97.8084 100.797 97.5523 101.036C97.3002 101.272 96.9945 101.39 96.635 101.39Z" fill="#198755"/>
<path d="M88.0465 112.428C87.2987 112.428 86.6293 112.236 86.0385 111.851C85.4477 111.467 84.9808 110.909 84.6378 110.178C84.2949 109.447 84.1234 108.558 84.1234 107.513C84.1234 106.455 84.297 105.563 84.644 104.836C84.9952 104.104 85.4683 103.553 86.0633 103.181C86.6583 102.805 87.3214 102.617 88.0527 102.617C88.6105 102.617 89.0692 102.712 89.4286 102.902C89.7881 103.088 90.0732 103.313 90.2839 103.578C90.4946 103.838 90.6578 104.084 90.7735 104.315H90.8665V99.5677H93.1162V112.26H90.9099V110.761H90.7735C90.6578 110.992 90.4905 111.238 90.2715 111.498C90.0525 111.754 89.7633 111.973 89.4038 112.155C89.0444 112.337 88.5919 112.428 88.0465 112.428ZM88.6725 110.587C89.1477 110.587 89.5526 110.459 89.8872 110.203C90.2219 109.943 90.476 109.581 90.6496 109.118C90.8231 108.655 90.9099 108.116 90.9099 107.501C90.9099 106.885 90.8231 106.35 90.6496 105.895C90.4802 105.441 90.2281 105.088 89.8934 104.836C89.5629 104.584 89.1559 104.458 88.6725 104.458C88.1726 104.458 87.7552 104.588 87.4206 104.848C87.0859 105.108 86.8339 105.468 86.6645 105.926C86.4951 106.385 86.4104 106.91 86.4104 107.501C86.4104 108.096 86.4951 108.627 86.6645 109.093C86.838 109.556 87.0921 109.922 87.4268 110.19C87.7656 110.455 88.1808 110.587 88.6725 110.587Z" fill="#198755"/>
<path d="M76.1223 106.683V112.261H73.8787V102.741H76.0231V104.358H76.1347C76.3537 103.825 76.7028 103.402 77.1821 103.088C77.6655 102.774 78.2626 102.617 78.9732 102.617C79.6302 102.617 80.2024 102.757 80.69 103.038C81.1817 103.319 81.5618 103.726 81.8303 104.259C82.103 104.792 82.2373 105.439 82.2332 106.199V112.261H79.9896V106.546C79.9896 105.91 79.8244 105.412 79.4938 105.053C79.1674 104.693 78.715 104.513 78.1365 104.513C77.744 104.513 77.3949 104.6 77.0891 104.774C76.7875 104.943 76.5499 105.189 76.3764 105.511C76.207 105.834 76.1223 106.224 76.1223 106.683Z" fill="#198755"/>
<path d="M69.328 108.257V102.741H71.5716V112.26H69.3962V110.568H69.297C69.0822 111.101 68.7289 111.537 68.2372 111.876C67.7497 112.215 67.1485 112.384 66.4337 112.384C65.8098 112.384 65.2582 112.246 64.7789 111.969C64.3038 111.688 63.9319 111.281 63.6633 110.748C63.3948 110.211 63.2605 109.562 63.2605 108.802V102.741H65.5041V108.455C65.5041 109.058 65.6693 109.538 65.9999 109.893C66.3304 110.248 66.7642 110.426 67.3014 110.426C67.6319 110.426 67.9521 110.345 68.262 110.184C68.5719 110.023 68.826 109.783 69.0243 109.465C69.2268 109.143 69.328 108.74 69.328 108.257Z" fill="#198755"/>
<path d="M61.5035 102.741V104.476H55.8761V102.741H61.5035ZM57.2829 112.26V101.842C57.2829 101.202 57.4152 100.669 57.6796 100.243C57.9482 99.8176 58.3076 99.4995 58.758 99.2887C59.2083 99.078 59.7083 98.9727 60.2578 98.9727C60.6462 98.9727 60.9912 99.0036 61.2928 99.0656C61.5944 99.1276 61.8176 99.1834 61.9622 99.233L61.5159 100.968C61.4209 100.939 61.3011 100.91 61.1565 100.882C61.0119 100.848 60.8507 100.832 60.6731 100.832C60.2557 100.832 59.9603 100.933 59.7868 101.136C59.6174 101.334 59.5327 101.619 59.5327 101.991V112.26H57.2829Z" fill="#198755"/>
<path d="M49.2213 112.428C48.4734 112.428 47.8041 112.236 47.2132 111.851C46.6224 111.467 46.1555 110.909 45.8126 110.178C45.4696 109.447 45.2981 108.558 45.2981 107.513C45.2981 106.455 45.4717 105.563 45.8188 104.836C46.17 104.104 46.643 103.553 47.238 103.181C47.833 102.805 48.4961 102.617 49.2275 102.617C49.7853 102.617 50.2439 102.712 50.6034 102.902C50.9628 103.088 51.2479 103.313 51.4586 103.578C51.6694 103.838 51.8326 104.084 51.9482 104.315H52.0412V99.5677H54.291V112.26H52.0846V110.761H51.9482C51.8326 110.992 51.6652 111.238 51.4462 111.498C51.2273 111.754 50.938 111.973 50.5786 112.155C50.2191 112.337 49.7667 112.428 49.2213 112.428ZM49.8472 110.587C50.3224 110.587 50.7273 110.459 51.062 110.203C51.3967 109.943 51.6508 109.581 51.8243 109.118C51.9978 108.655 52.0846 108.116 52.0846 107.501C52.0846 106.885 51.9978 106.35 51.8243 105.895C51.6549 105.441 51.4029 105.088 51.0682 104.836C50.7376 104.584 50.3307 104.458 49.8472 104.458C49.3473 104.458 48.93 104.588 48.5953 104.848C48.2606 105.108 48.0086 105.468 47.8392 105.926C47.6698 106.385 47.5851 106.91 47.5851 107.501C47.5851 108.096 47.6698 108.627 47.8392 109.093C48.0127 109.556 48.2668 109.922 48.6015 110.19C48.9403 110.455 49.3556 110.587 49.8472 110.587Z" fill="#198755"/>
<path d="M33.3196 112.26L30.6298 102.741H32.9168L34.5901 109.434H34.6769L36.3875 102.741H38.6496L40.3602 109.397H40.4531L42.1017 102.741H44.3949L41.6989 112.26H39.3623L37.5774 105.827H37.4473L35.6623 112.26H33.3196Z" fill="#198755"/>
<path d="M25.1619 112.446C24.2323 112.446 23.4266 112.242 22.7449 111.833C22.0631 111.424 21.5342 110.852 21.1583 110.116C20.7864 109.381 20.6005 108.521 20.6005 107.538C20.6005 106.555 20.7864 105.693 21.1583 104.953C21.5342 104.214 22.0631 103.64 22.7449 103.231C23.4266 102.821 24.2323 102.617 25.1619 102.617C26.0916 102.617 26.8973 102.821 27.579 103.231C28.2608 103.64 28.7876 104.214 29.1594 104.953C29.5354 105.693 29.7234 106.555 29.7234 107.538C29.7234 108.521 29.5354 109.381 29.1594 110.116C28.7876 110.852 28.2608 111.424 27.579 111.833C26.8973 112.242 26.0916 112.446 25.1619 112.446ZM25.1743 110.649C25.6784 110.649 26.0999 110.511 26.4387 110.234C26.7775 109.953 27.0295 109.577 27.1948 109.106C27.3642 108.635 27.4489 108.11 27.4489 107.532C27.4489 106.949 27.3642 106.422 27.1948 105.951C27.0295 105.476 26.7775 105.098 26.4387 104.817C26.0999 104.536 25.6784 104.396 25.1743 104.396C24.6579 104.396 24.2282 104.536 23.8852 104.817C23.5464 105.098 23.2923 105.476 23.1229 105.951C22.9576 106.422 22.875 106.949 22.875 107.532C22.875 108.11 22.9576 108.635 23.1229 109.106C23.2923 109.577 23.5464 109.953 23.8852 110.234C24.2282 110.511 24.6579 110.649 25.1743 110.649Z" fill="#198755"/>
<path d="M14.4818 112.26V102.741H16.6572V104.327H16.7564C16.9299 103.778 17.2274 103.354 17.6488 103.057C18.0744 102.755 18.5599 102.605 19.1053 102.605C19.2292 102.605 19.3676 102.611 19.5205 102.623C19.6775 102.631 19.8077 102.646 19.911 102.666V104.73C19.8159 104.697 19.6651 104.668 19.4585 104.644C19.2561 104.615 19.0598 104.6 18.8698 104.6C18.4607 104.6 18.093 104.689 17.7666 104.867C17.4443 105.04 17.1902 105.282 17.0043 105.592C16.8183 105.902 16.7254 106.259 16.7254 106.664V112.26H14.4818Z" fill="#198755"/>
<path d="M8.56148 112.446C7.61117 112.446 6.79515 112.238 6.1134 111.82C5.43579 111.403 4.91312 110.827 4.54539 110.091C4.18179 109.352 4 108.501 4 107.538C4 106.571 4.18593 105.718 4.55779 104.978C4.92965 104.235 5.45438 103.656 6.13199 103.243C6.81374 102.826 7.61944 102.617 8.54909 102.617C9.32173 102.617 10.0055 102.759 10.6005 103.045C11.1996 103.326 11.6768 103.724 12.0322 104.241C12.3875 104.753 12.59 105.352 12.6395 106.038H10.4952C10.4084 105.579 10.2018 105.197 9.87539 104.891C9.55311 104.582 9.12134 104.427 8.58007 104.427C8.12145 104.427 7.7186 104.551 7.37153 104.799C7.02446 105.042 6.75383 105.393 6.55963 105.852C6.36957 106.311 6.27454 106.86 6.27454 107.501C6.27454 108.149 6.36957 108.707 6.55963 109.174C6.7497 109.637 7.0162 109.994 7.35913 110.246C7.7062 110.494 8.11318 110.618 8.58007 110.618C8.91062 110.618 9.20604 110.556 9.46634 110.432C9.73077 110.304 9.95183 110.12 10.1295 109.881C10.3072 109.641 10.429 109.35 10.4952 109.007H12.6395C12.5858 109.68 12.3875 110.277 12.0446 110.798C11.7016 111.314 11.2347 111.719 10.6439 112.013C10.0531 112.302 9.35891 112.446 8.56148 112.446Z" fill="#198755"/>
</svg>
