<svg width="245" height="115" viewBox="0 0 245 115" fill="none" xmlns="http://www.w3.org/2000/svg">
<path d="M216.887 92.7421C211.111 92.7421 206.116 91.5149 201.901 89.0606C197.712 86.5816 194.476 83.1357 192.196 78.7229C189.915 74.2854 188.775 69.1413 188.775 63.2907C188.775 57.3906 189.915 52.2341 192.196 47.8214C194.476 43.3838 197.712 39.9379 201.901 37.4836C206.116 35.0046 211.111 33.765 216.887 33.765C222.663 33.765 227.646 35.0046 231.836 37.4836C236.05 39.9379 239.298 43.3838 241.579 47.8214C243.86 52.2341 245 57.3906 245 63.2907C245 69.1413 243.86 74.2854 241.579 78.7229C239.298 83.1357 236.05 86.5816 231.836 89.0606C227.646 91.5149 222.663 92.7421 216.887 92.7421ZM216.962 80.4707C219.589 80.4707 221.783 79.7269 223.544 78.2395C225.304 76.7273 226.63 74.6697 227.522 72.0666C228.44 69.4636 228.898 66.5011 228.898 63.1792C228.898 59.8572 228.44 56.8947 227.522 54.2917C226.63 51.6887 225.304 49.6311 223.544 48.1188C221.783 46.6066 219.589 45.8505 216.962 45.8505C214.309 45.8505 212.078 46.6066 210.268 48.1188C208.483 49.6311 207.132 51.6887 206.215 54.2917C205.322 56.8947 204.876 59.8572 204.876 63.1792C204.876 66.5011 205.322 69.4636 206.215 72.0666C207.132 74.6697 208.483 76.7273 210.268 78.2395C212.078 79.7269 214.309 80.4707 216.962 80.4707Z" fill="black"/>
<path d="M148.589 110.531C143.506 109.827 139.244 108.523 135.804 106.62C132.384 104.745 129.771 102.468 127.965 99.7907C126.158 97.1128 125.142 94.244 124.915 91.1843L139.698 91.242C139.983 92.4328 140.537 93.5856 141.359 94.7005C142.18 95.8154 143.336 96.7763 144.826 97.5834C146.337 98.4183 148.235 98.9939 150.518 99.3102C153.932 99.7829 156.859 99.3374 159.3 97.9737C161.763 96.6379 163.263 94.03 163.8 90.1501L165.233 79.7997L164.57 79.7078C163.665 81.1842 162.428 82.527 160.859 83.7363C159.29 84.9456 157.364 85.8426 155.081 86.4273C152.797 87.0121 150.158 87.097 147.162 86.6821C142.913 86.0937 139.182 84.5759 135.967 82.1284C132.78 79.6599 130.437 76.2446 128.939 71.8825C127.469 67.4994 127.167 62.1769 128.035 55.915C128.922 49.5058 130.707 44.2971 133.39 40.2888C136.072 36.2805 139.293 33.448 143.051 31.7911C146.834 30.1376 150.8 29.5983 154.95 30.173C158.118 30.6117 160.695 31.5192 162.682 32.8956C164.672 34.2474 166.207 35.8115 167.288 37.5879C168.396 39.3431 169.201 41.0313 169.702 42.6524L170.292 42.734L171.608 33.2308L187.189 35.3886L179.277 92.5188C178.61 97.3318 176.874 101.196 174.067 104.111C171.261 107.026 167.658 109.004 163.259 110.047C158.881 111.118 153.991 111.279 148.589 110.531ZM153.767 75.5837C156.296 75.934 158.519 75.6037 160.436 74.5928C162.381 73.5607 163.983 71.9306 165.243 69.7025C166.53 67.4531 167.404 64.6709 167.863 61.3558C168.322 58.0407 168.253 55.103 167.657 52.5427C167.064 49.9579 165.977 47.8677 164.396 46.2722C162.815 44.6768 160.76 43.7039 158.23 43.3536C155.652 42.9965 153.382 43.3954 151.42 44.5503C149.461 45.6806 147.858 47.4106 146.609 49.7404C145.36 52.0702 144.513 54.8435 144.068 58.0604C143.616 61.3264 143.679 64.2133 144.257 66.7211C144.864 69.2077 145.949 71.2225 147.512 72.7654C149.103 74.2872 151.188 75.2267 153.767 75.5837Z" fill="black"/>
<path d="M105 91.6263V34.5086H120.841V91.6263H105Z" fill="black"/>
<path d="M62.1626 91.6263V34.5086H77.5204V44.4744H78.1154C79.1566 40.9294 80.9043 38.252 83.3586 36.4423C85.8129 34.6077 88.639 33.6905 91.837 33.6905C92.6303 33.6905 93.4856 33.7401 94.4029 33.8392C95.3201 33.9384 96.1258 34.0747 96.8199 34.2483V48.3046C96.0762 48.0815 95.0474 47.8831 93.7335 47.7096C92.4196 47.5361 91.2172 47.4493 90.1265 47.4493C87.7961 47.4493 85.7137 47.9575 83.8792 48.9739C82.0695 49.9656 80.6316 51.3538 79.5656 53.1388C78.5244 54.9237 78.0038 56.9813 78.0038 59.3116V91.6263H62.1626Z" fill="black"/>
<path d="M28.1126 92.7421C22.3364 92.7421 17.3411 91.5149 13.1267 89.0606C8.93704 86.5816 5.70186 83.1357 3.42111 78.7229C1.14037 74.2854 0 69.1413 0 63.2907C0 57.3906 1.14037 52.2341 3.42111 47.8214C5.70186 43.3838 8.93704 39.9379 13.1267 37.4836C17.3411 35.0046 22.3364 33.765 28.1126 33.765C33.8889 33.765 38.8718 35.0046 43.0614 37.4836C47.2758 39.9379 50.5234 43.3838 52.8041 47.8214C55.0849 52.2341 56.2253 57.3906 56.2253 63.2907C56.2253 69.1413 55.0849 74.2854 52.8041 78.7229C50.5234 83.1357 47.2758 86.5816 43.0614 89.0606C38.8718 91.5149 33.8889 92.7421 28.1126 92.7421ZM28.187 80.4707C30.8148 80.4707 33.0088 79.7269 34.7689 78.2395C36.5291 76.7273 37.8554 74.6697 38.7478 72.0666C39.6651 69.4636 40.1237 66.5011 40.1237 63.1792C40.1237 59.8572 39.6651 56.8947 38.7478 54.2917C37.8554 51.6887 36.5291 49.6311 34.7689 48.1188C33.0088 46.6066 30.8148 45.8505 28.187 45.8505C25.5344 45.8505 23.3032 46.6066 21.4935 48.1188C19.7086 49.6311 18.3575 51.6887 17.4402 54.2917C16.5478 56.8947 16.1015 59.8572 16.1015 63.1792C16.1015 66.5011 16.5478 69.4636 17.4402 72.0666C18.3575 74.6697 19.7086 76.7273 21.4935 78.2395C23.3032 79.7269 25.5344 80.4707 28.187 80.4707Z" fill="black"/>
<path d="M122.61 13.9835C122.218 13.4719 121.74 13.0285 121.297 12.5852C120.154 11.562 118.858 10.8287 117.767 9.75435C115.226 7.26461 114.663 3.15482 116.283 0C114.663 0.392221 113.248 1.27898 112.037 2.25101C107.62 5.79804 105.881 12.0565 107.961 17.4282C108.03 17.5988 108.098 17.7693 108.098 17.991C108.098 18.3662 107.842 18.7072 107.501 18.8436C107.109 19.0142 106.7 18.9119 106.376 18.639C106.279 18.5579 106.198 18.4596 106.137 18.3491C104.21 15.9105 103.903 12.4146 105.199 9.61793C102.351 11.9371 100.799 15.8594 101.021 19.5599C101.123 20.4125 101.226 21.2652 101.515 22.1178C101.754 23.141 102.215 24.1642 102.726 25.068C104.568 28.0182 107.757 30.1328 111.185 30.5591C114.834 31.0195 118.739 30.3545 121.536 27.8306C124.656 24.9998 125.748 20.4637 124.145 16.5756L123.923 16.1322C123.565 15.3478 122.61 13.9835 122.61 13.9835ZM117.221 24.7269C116.744 25.1362 115.959 25.5796 115.345 25.7501C113.436 26.4323 111.526 25.4773 110.4 24.3518C112.429 23.8743 113.64 22.3736 113.998 20.8559C114.288 19.4917 113.742 18.3662 113.521 17.0531C113.316 15.7911 113.35 14.7168 113.811 13.5401C114.135 14.1882 114.476 14.8362 114.885 15.3478C116.198 17.0531 118.262 17.8034 118.705 20.1226C118.773 20.3614 118.807 20.6001 118.807 20.8559C118.858 22.2543 118.245 23.789 117.221 24.7269Z" fill="#01AEC4"/>
<path d="M115.833 112.029C115.027 112.029 114.335 111.919 113.757 111.7C113.178 111.485 112.713 111.196 112.362 110.833C112.011 110.469 111.767 110.066 111.631 109.624L113.651 109.134C113.742 109.32 113.874 109.504 114.048 109.686C114.221 109.872 114.455 110.025 114.748 110.145C115.046 110.269 115.42 110.331 115.87 110.331C116.506 110.331 117.033 110.176 117.45 109.866C117.868 109.56 118.076 109.056 118.076 108.353V106.55H117.965C117.849 106.781 117.68 107.019 117.457 107.263C117.238 107.506 116.946 107.711 116.583 107.876C116.223 108.042 115.771 108.124 115.225 108.124C114.494 108.124 113.831 107.953 113.236 107.61C112.645 107.263 112.174 106.746 111.823 106.06C111.476 105.37 111.302 104.507 111.302 103.47C111.302 102.424 111.476 101.542 111.823 100.823C112.174 100.1 112.647 99.5528 113.242 99.1809C113.837 98.8049 114.5 98.6169 115.232 98.6169C115.789 98.6169 116.248 98.712 116.608 98.902C116.971 99.088 117.26 99.3131 117.475 99.5776C117.69 99.8379 117.853 100.084 117.965 100.315H118.089V98.7409H120.301V108.415C120.301 109.229 120.107 109.903 119.719 110.436C119.33 110.969 118.799 111.368 118.126 111.632C117.452 111.896 116.688 112.029 115.833 112.029ZM115.851 106.364C116.327 106.364 116.732 106.248 117.066 106.017C117.401 105.786 117.655 105.453 117.828 105.019C118.002 104.585 118.089 104.065 118.089 103.457C118.089 102.858 118.002 102.333 117.828 101.883C117.659 101.433 117.407 101.084 117.072 100.836C116.742 100.584 116.335 100.458 115.851 100.458C115.351 100.458 114.934 100.588 114.599 100.848C114.265 101.108 114.013 101.466 113.843 101.92C113.674 102.371 113.589 102.883 113.589 103.457C113.589 104.04 113.674 104.55 113.843 104.988C114.017 105.422 114.271 105.761 114.606 106.005C114.945 106.244 115.36 106.364 115.851 106.364Z" fill="#01AEC4"/>
<path d="M103.301 102.683V108.261H101.058V98.7409H103.202V100.358H103.313C103.532 99.8255 103.882 99.402 104.361 99.088C104.844 98.774 105.441 98.6169 106.152 98.6169C106.809 98.6169 107.381 98.7574 107.869 99.0384C108.36 99.3193 108.741 99.7263 109.009 100.259C109.282 100.792 109.416 101.439 109.412 102.199V108.261H107.168V102.546C107.168 101.91 107.003 101.412 106.673 101.053C106.346 100.693 105.894 100.513 105.315 100.513C104.923 100.513 104.574 100.6 104.268 100.774C103.966 100.943 103.729 101.189 103.555 101.511C103.386 101.834 103.301 102.224 103.301 102.683Z" fill="#01AEC4"/>
<path d="M96.507 108.26V98.7408H98.7506V108.26H96.507ZM97.635 97.3897C97.2797 97.3897 96.9739 97.272 96.7177 97.0365C96.4616 96.7968 96.3335 96.5097 96.3335 96.175C96.3335 95.8362 96.4616 95.549 96.7177 95.3135C96.9739 95.0739 97.2797 94.954 97.635 94.954C97.9945 94.954 98.3002 95.0739 98.5523 95.3135C98.8084 95.549 98.9365 95.8362 98.9365 96.175C98.9365 96.5097 98.8084 96.7968 98.5523 97.0365C98.3002 97.272 97.9945 97.3897 97.635 97.3897Z" fill="#01AEC4"/>
<path d="M89.0465 108.428C88.2987 108.428 87.6293 108.236 87.0385 107.851C86.4477 107.467 85.9808 106.909 85.6378 106.178C85.2949 105.447 85.1234 104.558 85.1234 103.513C85.1234 102.455 85.297 101.563 85.644 100.836C85.9952 100.104 86.4683 99.5528 87.0633 99.1809C87.6583 98.8049 88.3214 98.6169 89.0527 98.6169C89.6105 98.6169 90.0692 98.7119 90.4286 98.902C90.7881 99.0879 91.0732 99.3131 91.2839 99.5775C91.4946 99.8378 91.6578 100.084 91.7735 100.315H91.8665V95.5677H94.1162V108.26H91.9099V106.761H91.7735C91.6578 106.992 91.4905 107.238 91.2715 107.498C91.0525 107.754 90.7633 107.973 90.4038 108.155C90.0444 108.337 89.5919 108.428 89.0465 108.428ZM89.6725 106.587C90.1477 106.587 90.5526 106.459 90.8872 106.203C91.2219 105.943 91.476 105.581 91.6496 105.118C91.8231 104.655 91.9099 104.116 91.9099 103.501C91.9099 102.885 91.8231 102.35 91.6496 101.895C91.4802 101.441 91.2281 101.088 90.8934 100.836C90.5629 100.584 90.1559 100.458 89.6725 100.458C89.1726 100.458 88.7552 100.588 88.4206 100.848C88.0859 101.108 87.8339 101.468 87.6645 101.926C87.4951 102.385 87.4104 102.91 87.4104 103.501C87.4104 104.096 87.4951 104.627 87.6645 105.093C87.838 105.556 88.0921 105.922 88.4268 106.19C88.7656 106.455 89.1808 106.587 89.6725 106.587Z" fill="#01AEC4"/>
<path d="M77.1223 102.683V108.261H74.8787V98.7409H77.0231V100.358H77.1347C77.3537 99.8255 77.7028 99.402 78.1821 99.088C78.6655 98.774 79.2626 98.6169 79.9732 98.6169C80.6302 98.6169 81.2024 98.7574 81.69 99.0384C82.1817 99.3193 82.5618 99.7263 82.8303 100.259C83.103 100.792 83.2373 101.439 83.2332 102.199V108.261H80.9896V102.546C80.9896 101.91 80.8244 101.412 80.4938 101.053C80.1674 100.693 79.715 100.513 79.1365 100.513C78.744 100.513 78.3949 100.6 78.0891 100.774C77.7875 100.943 77.5499 101.189 77.3764 101.511C77.207 101.834 77.1223 102.224 77.1223 102.683Z" fill="#01AEC4"/>
<path d="M70.328 104.257V98.7408H72.5716V108.26H70.3962V106.568H70.297C70.0822 107.101 69.7289 107.537 69.2372 107.876C68.7497 108.215 68.1485 108.384 67.4337 108.384C66.8098 108.384 66.2582 108.246 65.7789 107.969C65.3038 107.688 64.9319 107.281 64.6633 106.748C64.3948 106.211 64.2605 105.562 64.2605 104.802V98.7408H66.5041V104.455C66.5041 105.058 66.6693 105.538 66.9999 105.893C67.3304 106.248 67.7642 106.426 68.3014 106.426C68.6319 106.426 68.9521 106.345 69.262 106.184C69.5719 106.023 69.826 105.783 70.0243 105.465C70.2268 105.143 70.328 104.74 70.328 104.257Z" fill="#01AEC4"/>
<path d="M62.5035 98.7408V100.476H56.8761V98.7408H62.5035ZM58.2829 108.26V97.8422C58.2829 97.2017 58.4152 96.6687 58.6796 96.2432C58.9482 95.8176 59.3076 95.4995 59.758 95.2887C60.2083 95.078 60.7083 94.9727 61.2578 94.9727C61.6462 94.9727 61.9912 95.0036 62.2928 95.0656C62.5944 95.1276 62.8176 95.1834 62.9622 95.233L62.5159 96.9683C62.4209 96.9394 62.3011 96.9105 62.1565 96.8815C62.0119 96.8485 61.8507 96.832 61.6731 96.832C61.2557 96.832 60.9603 96.9332 60.7868 97.1356C60.6174 97.334 60.5327 97.6191 60.5327 97.9909V108.26H58.2829Z" fill="#01AEC4"/>
<path d="M50.2213 108.428C49.4734 108.428 48.8041 108.236 48.2132 107.851C47.6224 107.467 47.1555 106.909 46.8126 106.178C46.4696 105.447 46.2981 104.558 46.2981 103.513C46.2981 102.455 46.4717 101.563 46.8188 100.836C47.17 100.104 47.643 99.5528 48.238 99.1809C48.833 98.8049 49.4961 98.6169 50.2275 98.6169C50.7853 98.6169 51.2439 98.7119 51.6034 98.902C51.9628 99.0879 52.2479 99.3131 52.4586 99.5775C52.6694 99.8378 52.8326 100.084 52.9482 100.315H53.0412V95.5677H55.291V108.26H53.0846V106.761H52.9482C52.8326 106.992 52.6652 107.238 52.4462 107.498C52.2273 107.754 51.938 107.973 51.5786 108.155C51.2191 108.337 50.7667 108.428 50.2213 108.428ZM50.8472 106.587C51.3224 106.587 51.7273 106.459 52.062 106.203C52.3967 105.943 52.6508 105.581 52.8243 105.118C52.9978 104.655 53.0846 104.116 53.0846 103.501C53.0846 102.885 52.9978 102.35 52.8243 101.895C52.6549 101.441 52.4029 101.088 52.0682 100.836C51.7376 100.584 51.3307 100.458 50.8472 100.458C50.3473 100.458 49.93 100.588 49.5953 100.848C49.2606 101.108 49.0086 101.468 48.8392 101.926C48.6698 102.385 48.5851 102.91 48.5851 103.501C48.5851 104.096 48.6698 104.627 48.8392 105.093C49.0127 105.556 49.2668 105.922 49.6015 106.19C49.9403 106.455 50.3556 106.587 50.8472 106.587Z" fill="#01AEC4"/>
<path d="M34.3196 108.26L31.6298 98.7408H33.9168L35.5901 105.434H35.6769L37.3875 98.7408H39.6496L41.3602 105.397H41.4531L43.1017 98.7408H45.3949L42.6989 108.26H40.3623L38.5774 101.827H38.4473L36.6623 108.26H34.3196Z" fill="#01AEC4"/>
<path d="M26.1619 108.446C25.2323 108.446 24.4266 108.242 23.7449 107.833C23.0631 107.424 22.5342 106.852 22.1583 106.116C21.7864 105.381 21.6005 104.521 21.6005 103.538C21.6005 102.555 21.7864 101.693 22.1583 100.953C22.5342 100.214 23.0631 99.6396 23.7449 99.2305C24.4266 98.8215 25.2323 98.6169 26.1619 98.6169C27.0916 98.6169 27.8973 98.8215 28.579 99.2305C29.2608 99.6396 29.7876 100.214 30.1594 100.953C30.5354 101.693 30.7234 102.555 30.7234 103.538C30.7234 104.521 30.5354 105.381 30.1594 106.116C29.7876 106.852 29.2608 107.424 28.579 107.833C27.8973 108.242 27.0916 108.446 26.1619 108.446ZM26.1743 106.649C26.6784 106.649 27.0999 106.511 27.4387 106.234C27.7775 105.953 28.0295 105.577 28.1948 105.106C28.3642 104.635 28.4489 104.11 28.4489 103.532C28.4489 102.949 28.3642 102.422 28.1948 101.951C28.0295 101.476 27.7775 101.098 27.4387 100.817C27.0999 100.536 26.6784 100.396 26.1743 100.396C25.6579 100.396 25.2282 100.536 24.8852 100.817C24.5464 101.098 24.2923 101.476 24.1229 101.951C23.9576 102.422 23.875 102.949 23.875 103.532C23.875 104.11 23.9576 104.635 24.1229 105.106C24.2923 105.577 24.5464 105.953 24.8852 106.234C25.2282 106.511 25.6579 106.649 26.1743 106.649Z" fill="#01AEC4"/>
<path d="M15.4818 108.26V98.7409H17.6572V100.327H17.7564C17.9299 99.7779 18.2274 99.3544 18.6488 99.057C19.0744 98.7553 19.5599 98.6045 20.1053 98.6045C20.2292 98.6045 20.3676 98.6107 20.5205 98.6231C20.6775 98.6314 20.8077 98.6458 20.911 98.6665V100.73C20.8159 100.697 20.6651 100.668 20.4585 100.644C20.2561 100.615 20.0598 100.6 19.8698 100.6C19.4607 100.6 19.093 100.689 18.7666 100.867C18.4443 101.04 18.1902 101.282 18.0043 101.592C17.8183 101.902 17.7254 102.259 17.7254 102.664V108.26H15.4818Z" fill="#01AEC4"/>
<path d="M9.56148 108.446C8.61117 108.446 7.79515 108.238 7.1134 107.82C6.43579 107.403 5.91312 106.827 5.54539 106.091C5.18179 105.352 5 104.501 5 103.538C5 102.571 5.18593 101.718 5.55779 100.978C5.92965 100.235 6.45438 99.6561 7.13199 99.2429C7.81374 98.8256 8.61944 98.6169 9.54909 98.6169C10.3217 98.6169 11.0055 98.7595 11.6005 99.0446C12.1996 99.3255 12.6768 99.7243 13.0322 100.241C13.3875 100.753 13.59 101.352 13.6395 102.038H11.4952C11.4084 101.579 11.2018 101.197 10.8754 100.891C10.5531 100.582 10.1213 100.427 9.58007 100.427C9.12145 100.427 8.7186 100.551 8.37153 100.799C8.02446 101.042 7.75383 101.393 7.55963 101.852C7.36957 102.311 7.27454 102.86 7.27454 103.501C7.27454 104.149 7.36957 104.707 7.55963 105.174C7.7497 105.637 8.0162 105.994 8.35913 106.246C8.7062 106.494 9.11318 106.618 9.58007 106.618C9.91062 106.618 10.206 106.556 10.4663 106.432C10.7308 106.304 10.9518 106.12 11.1295 105.881C11.3072 105.641 11.429 105.35 11.4952 105.007H13.6395C13.5858 105.68 13.3875 106.277 13.0446 106.798C12.7016 107.314 12.2347 107.719 11.6439 108.013C11.0531 108.302 10.3589 108.446 9.56148 108.446Z" fill="#01AEC4"/>
</svg>
